<svg width="33" height="33" viewBox="0 0 33 33" fill="none" xmlns="http://www.w3.org/2000/svg">
<path d="M16.5 0C13.2861 0 10.1443 0.953046 7.47199 2.73862C4.79969 4.52419 2.71689 7.06209 1.48697 10.0314C0.257041 13.0007 -0.0647633 16.268 0.562247 19.4202C1.18926 22.5724 2.73692 25.4679 5.00952 27.7405C7.28213 30.0131 10.1776 31.5608 13.3298 32.1878C16.482 32.8148 19.7493 32.493 22.7186 31.263C25.6879 30.0331 28.2258 27.9503 30.0114 25.278C31.797 22.6057 32.75 19.4639 32.75 16.25C32.75 14.116 32.3297 12.0029 31.5131 10.0314C30.6964 8.05985 29.4994 6.26847 27.9905 4.75952C26.4815 3.25056 24.6902 2.0536 22.7186 1.23696C20.7471 0.420319 18.634 0 16.5 0ZM20.9038 18.3463C21.0561 18.4973 21.177 18.677 21.2595 18.8751C21.342 19.0731 21.3844 19.2855 21.3844 19.5C21.3844 19.7145 21.342 19.9269 21.2595 20.1249C21.177 20.323 21.0561 20.5027 20.9038 20.6538C20.7527 20.8061 20.573 20.927 20.3749 21.0094C20.1769 21.0919 19.9645 21.1344 19.75 21.1344C19.5355 21.1344 19.3231 21.0919 19.1251 21.0094C18.927 20.927 18.7473 20.8061 18.5963 20.6538L16.5 18.5413L14.4038 20.6538C14.2527 20.8061 14.073 20.927 13.8749 21.0094C13.6769 21.0919 13.4645 21.1344 13.25 21.1344C13.0355 21.1344 12.8231 21.0919 12.6251 21.0094C12.427 20.927 12.2473 20.8061 12.0963 20.6538C11.9439 20.5027 11.8231 20.323 11.7406 20.1249C11.6581 19.9269 11.6156 19.7145 11.6156 19.5C11.6156 19.2855 11.6581 19.0731 11.7406 18.8751C11.8231 18.677 11.9439 18.4973 12.0963 18.3463L14.2088 16.25L12.0963 14.1538C11.7903 13.8478 11.6184 13.4327 11.6184 13C11.6184 12.5673 11.7903 12.1522 12.0963 11.8463C12.4023 11.5403 12.8173 11.3684 13.25 11.3684C13.6827 11.3684 14.0978 11.5403 14.4038 11.8463L16.5 13.9588L18.5963 11.8463C18.9023 11.5403 19.3173 11.3684 19.75 11.3684C20.1827 11.3684 20.5978 11.5403 20.9038 11.8463C21.2098 12.1522 21.3817 12.5673 21.3817 13C21.3817 13.4327 21.2098 13.8478 20.9038 14.1538L18.7913 16.25L20.9038 18.3463Z" fill="black"/>
</svg>
